<svg width="132" height="36" viewBox="0 0 132 36" fill="none" xmlns="http://www.w3.org/2000/svg">
<path fill-rule="evenodd" clip-rule="evenodd" d="M23 5C23 7.76142 20.7614 10 18 10C15.2386 10 13 7.76142 13 5C13 2.23858 15.2386 0 18 0C20.7614 0 23 2.23858 23 5ZM31 23C28.2386 23 26 20.7614 26 18C26 15.2386 28.2386 13 31 13C33.7614 13 36 15.2386 36 18C36 20.7614 33.7614 23 31 23ZM18 36C20.7614 36 23 33.7614 23 31C23 28.2386 20.7614 26 18 26C15.2386 26 13 28.2386 13 31C13 33.7614 15.2386 36 18 36ZM5 23C2.23858 23 0 20.7614 0 18C0 15.2386 2.23858 13 5 13C7.76142 13 10 15.2386 10 18C10 20.7614 7.76142 23 5 23ZM85.8195 18.072C85.8195 24.792 82.0435 29.112 75.2915 29.112C68.4435 29.112 65.2115 24.792 65.2115 18.072C65.2115 11.416 68.8915 7 75.7395 7C82.3955 7 85.8195 11.416 85.8195 18.072ZM70.7475 18.104C70.7475 22.68 72.3795 24.984 75.5155 24.984C78.5235 24.984 80.1235 22.808 80.1235 18.104V18.008C80.1235 13.4 78.5875 11.128 75.5475 11.128C72.5075 11.128 70.7475 13.336 70.7475 17.976V18.104ZM63.584 28.696H50.432V7.48H55.872V24.152H63.584V28.696ZM96.8918 29.112C100.636 29.112 103.068 26.68 103.676 22.968L104.092 28.696H108.156V16.792H98.8758V21.016H103.292C103.036 23.16 101.436 25.048 98.5878 25.048C95.2598 25.048 93.4358 22.84 93.4358 18.232V17.944C93.4358 13.368 95.6438 11.16 98.5238 11.16C100.54 11.16 101.756 12.12 102.172 14.008L107.772 12.472C106.396 9.176 103.74 7 98.6198 7C91.7398 7 87.7718 11.448 87.7718 18.232C87.7718 24.536 91.0998 29.112 96.8918 29.112ZM131.32 18.072C131.32 24.792 127.544 29.112 120.792 29.112C113.944 29.112 110.712 24.792 110.712 18.072C110.712 11.416 114.392 7 121.24 7C127.896 7 131.32 11.416 131.32 18.072ZM116.248 18.104C116.248 22.68 117.88 24.984 121.016 24.984C124.024 24.984 125.624 22.808 125.624 18.104V18.008C125.624 13.4 124.088 11.128 121.048 11.128C118.008 11.128 116.248 13.336 116.248 17.976V18.104Z" fill="white"/>
</svg>
